# This file uses centimeters as units for non-parametric coordinates.

mtllib Unit Block.mtl
g default
v -1.647498 -3.397498 1.400035
v -1.400035 -3.500000 1.400035
v -1.400035 -3.397498 1.647498
v -1.400035 -3.150035 1.750000
v -1.647498 -3.150035 1.647498
v -1.750000 -3.150035 1.400035
v 1.647498 -3.397498 1.400035
v 1.750000 -3.150035 1.400035
v 1.647498 -3.150035 1.647498
v 1.400035 -3.150035 1.750000
v 1.400035 -3.397498 1.647498
v 1.400035 -3.500000 1.400035
v -1.647498 3.397498 1.400035
v -1.750000 3.150035 1.400035
v -1.647498 3.150035 1.647498
v -1.400035 3.150035 1.750000
v -1.400035 3.397498 1.647498
v -1.400035 3.500000 1.400035
v 1.647498 3.397498 1.400035
v 1.400035 3.500000 1.400035
v 1.400035 3.397498 1.647498
v 1.400035 3.150035 1.750000
v 1.647498 3.150035 1.647498
v 1.750000 3.150035 1.400035
v -1.647498 3.150035 -1.647498
v -1.750000 3.150035 -1.400035
v -1.647498 3.397498 -1.400035
v -1.400035 3.500000 -1.400035
v -1.400035 3.397498 -1.647498
v -1.400035 3.150035 -1.750000
v 1.647498 3.150035 -1.647498
v 1.400035 3.150035 -1.750000
v 1.400035 3.397498 -1.647498
v 1.400035 3.500000 -1.400035
v 1.647498 3.397498 -1.400035
v 1.750000 3.150035 -1.400035
v -1.647498 -3.397498 -1.400035
v -1.750000 -3.150035 -1.400035
v -1.647498 -3.150035 -1.647498
v -1.400035 -3.150035 -1.750000
v -1.400035 -3.397498 -1.647498
v -1.400035 -3.500000 -1.400035
v 1.647498 -3.397498 -1.400035
v 1.400035 -3.500000 -1.400035
v 1.400035 -3.397498 -1.647498
v 1.400035 -3.150035 -1.750000
v 1.647498 -3.150035 -1.647498
v 1.750000 -3.150035 -1.400035
v -1.602017 -3.352017 1.602017
v 1.602017 -3.352017 1.602017
v -1.602017 3.352017 1.602017
v 1.602017 3.352017 1.602017
v -1.602017 3.352017 -1.602017
v 1.602017 3.352017 -1.602017
v -1.602017 -3.352017 -1.602017
v 1.602017 -3.352017 -1.602017
vt 0.218586 0.591070
vt 0.222696 0.333239
vt 0.218549 0.507999
vt 0.221821 0.225898
vt 0.425024 0.331618
vt 0.424387 0.241399
vt 0.424270 0.224259
vt 0.221849 0.440036
vt 0.216926 0.716037
vt 0.216893 0.632963
vt 0.423512 0.134057
vt 0.221184 0.135679
vt 0.135479 0.508047
vt 0.219050 0.027758
vt 0.221064 0.118540
vt 0.221938 0.243037
vt 0.133852 0.716081
vt 0.133819 0.633007
vt 0.424359 0.027260
vt 0.423415 0.116902
vt 0.135516 0.591117
vt 0.222792 0.350394
vt 0.425144 0.348756
vt 0.427158 0.439539
vt 0.218831 0.599015
vt 0.214246 0.349514
vt 0.214056 0.333988
vt 0.222920 0.341821
vt 0.213183 0.226688
vt 0.218783 0.500088
vt 0.222044 0.234472
vt 0.226495 0.507761
vt 0.433739 0.347763
vt 0.133618 0.723993
vt 0.424910 0.340181
vt 0.125907 0.716320
vt 0.133575 0.625062
vt 0.432832 0.224899
vt 0.433025 0.240608
vt 0.424164 0.232824
vt 0.427504 0.448166
vt 0.424627 0.018651
vt 0.217171 0.723983
vt 0.435758 0.439491
vt 0.433022 0.027210
vt 0.423288 0.125475
vt 0.224839 0.632725
vt 0.432152 0.133308
vt 0.217127 0.625052
vt 0.213186 0.440087
vt 0.135282 0.599028
vt 0.218704 0.019130
vt 0.221581 0.448645
vt 0.127571 0.591356
vt 0.135234 0.500102
vt 0.212622 0.135077
vt 0.212469 0.119533
vt 0.221298 0.127115
vt 0.225222 0.597714
vt 0.215153 0.234524
vt 0.431777 0.340054
vt 0.127183 0.626362
vt 0.434491 0.446549
vt 0.431652 0.020180
vt 0.430160 0.125512
vt 0.214556 0.447116
vt 0.128873 0.597751
vt 0.128843 0.501402
vt 0.431961 0.117782
vt 0.223537 0.626329
vt 0.223562 0.722683
vt 0.224838 0.716277
vt 0.127568 0.507808
vt 0.214431 0.127243
vt 0.211717 0.020747
vt 0.210449 0.027806
vt 0.125908 0.632767
vt 0.431055 0.232772
vt 0.127209 0.722715
vt 0.433586 0.332219
vt 0.225192 0.501365
vt 0.213376 0.242397
vt 0.226497 0.591309
vt 0.216048 0.341784
vn -0.032712 -0.998930 0.032712
vn -0.706920 -0.706920 0.022978
vn -0.706920 -0.706920 -0.022978
vn -0.032712 -0.998930 -0.032712
vn -0.999333 -0.015218 0.033199
vn -0.999333 -0.015218 -0.033199
vn -0.033199 -0.015218 0.999333
vn -0.022978 -0.706920 0.706920
vn 0.022978 -0.706920 0.706920
vn 0.033199 -0.015218 0.999333
vn 0.032712 -0.998930 0.032712
vn -0.707067 -0.010571 0.707067
vn -0.707067 0.010571 0.707067
vn -0.999333 0.015218 0.033199
vn -0.033199 0.015218 0.999333
vn 0.999333 -0.015218 0.033199
vn 0.706920 -0.706920 0.022978
vn 0.706920 -0.706920 -0.022978
vn 0.999333 -0.015218 -0.033199
vn 0.032712 -0.998930 -0.032712
vn 0.707067 -0.010571 0.707067
vn 0.707067 0.010571 0.707067
vn 0.033199 0.015218 0.999333
vn 0.999333 0.015218 0.033199
vn -0.706920 0.706920 0.022978
vn -0.706920 0.706920 -0.022978
vn -0.999333 0.015218 -0.033199
vn -0.032712 0.998930 0.032712
vn -0.032712 0.998930 -0.032712
vn -0.022978 0.706920 0.706920
vn 0.022978 0.706920 0.706920
vn 0.032712 0.998930 0.032712
vn 0.706920 0.706920 0.022978
vn 0.706920 0.706920 -0.022978
vn 0.032712 0.998930 -0.032712
vn 0.999333 0.015218 -0.033199
vn -0.707067 0.010571 -0.707067
vn -0.707067 -0.010571 -0.707067
vn -0.033199 0.015218 -0.999333
vn -0.033199 -0.015218 -0.999333
vn -0.022978 0.706920 -0.706920
vn 0.022978 0.706920 -0.706920
vn 0.033199 0.015218 -0.999333
vn 0.707067 0.010571 -0.707067
vn 0.707067 -0.010571 -0.707067
vn 0.033199 -0.015218 -0.999333
vn -0.022978 -0.706920 -0.706920
vn 0.022978 -0.706920 -0.706920
vn -0.577350 -0.577350 0.577350
vn 0.577350 -0.577350 0.577350
vn -0.577350 0.577350 0.577350
vn 0.577350 0.577350 0.577350
vn -0.577350 0.577350 -0.577350
vn 0.577350 0.577350 -0.577350
vn -0.577350 -0.577350 -0.577350
vn 0.577350 -0.577350 -0.577350
s 1
g unit_block
usemtl blinn1SG
f 2/1/1 1/25/2 37/51/3 42/21/4
f 1/26/2 6/22/5 38/8/6 37/50/3
f 4/2/7 3/27/8 11/82/9 10/16/10
f 3/83/8 2/1/1 12/3/11 11/32/9
f 6/22/5 5/28/12 15/35/13 14/23/14
f 5/28/12 4/2/7 16/5/15 15/35/13
f 8/4/16 7/29/17 43/56/18 48/12/19
f 7/30/17 12/3/11 44/13/20 43/55/18
f 10/16/10 9/31/21 23/40/22 22/6/23
f 9/31/21 8/4/16 24/7/24 23/40/22
f 14/23/14 13/33/25 27/44/26 26/24/27
f 13/34/25 18/17/28 28/9/29 27/43/26
f 18/17/28 17/36/30 21/77/31 20/18/32
f 17/80/30 16/5/15 22/6/23 21/39/31
f 20/18/32 19/37/33 35/49/34 34/10/35
f 19/38/33 24/7/24 36/11/36 35/48/34
f 26/24/27 25/41/37 39/53/38 38/8/6
f 25/42/37 30/19/39 40/14/40 39/52/38
f 30/19/39 29/45/41 33/69/42 32/20/43
f 29/72/41 28/9/29 34/10/35 33/47/42
f 32/20/43 31/46/44 47/58/45 46/15/46
f 31/46/44 36/11/36 48/12/19 47/58/45
f 42/21/4 41/54/47 45/73/48 44/13/20
f 41/76/47 40/14/40 46/15/46 45/57/48
f 4/2/7 10/16/10 22/6/23 16/5/15
f 18/17/28 20/18/32 34/10/35 28/9/29
f 30/19/39 32/20/43 46/15/46 40/14/40
f 42/21/4 44/13/20 12/3/11 2/1/1
f 8/4/16 48/12/19 36/11/36 24/7/24
f 38/8/6 6/22/5 14/23/14 26/24/27
f 5/28/12 6/22/5 1/26/2 49/84/49
f 1/25/2 2/1/1 3/83/8 49/59/49
f 3/27/8 4/2/7 5/28/12 49/84/49
f 11/32/9 12/3/11 7/30/17 50/81/50
f 7/29/17 8/4/16 9/31/21 50/60/50
f 9/31/21 10/16/10 11/82/9 50/60/50
f 17/36/30 18/17/28 13/34/25 51/79/51
f 13/33/25 14/23/14 15/35/13 51/61/51
f 15/35/13 16/5/15 17/80/30 51/61/51
f 23/40/22 24/7/24 19/38/33 52/78/52
f 19/37/33 20/18/32 21/77/31 52/62/52
f 21/39/31 22/6/23 23/40/22 52/78/52
f 29/45/41 30/19/39 25/42/37 53/64/53
f 25/41/37 26/24/27 27/44/26 53/63/53
f 27/43/26 28/9/29 29/72/41 53/71/53
f 35/48/34 36/11/36 31/46/44 54/65/54
f 31/46/44 32/20/43 33/69/42 54/65/54
f 33/47/42 34/10/35 35/49/34 54/70/54
f 41/54/47 42/21/4 37/51/3 55/67/55
f 37/50/3 38/8/6 39/53/38 55/66/55
f 39/52/38 40/14/40 41/76/47 55/75/55
f 47/58/45 48/12/19 43/56/18 56/74/56
f 43/55/18 44/13/20 45/73/48 56/68/56
f 45/57/48 46/15/46 47/58/45 56/74/56
